<?xml version="1.0" encoding="UTF-8"?>
<svg version="1.1" xmlns="http://www.w3.org/2000/svg" width="817" height="589">
<path d="M0 0 C1.00445538 0.00198426 2.00891075 0.00396852 3.04380417 0.00601292 C21.86267514 0.03967326 40.67914261 0.02681366 59.49707031 -0.17797852 C75.39921253 -0.35063968 91.30045836 -0.44784465 107.20349503 -0.48965549 C116.7354527 -0.51705852 126.26525925 -0.57762945 135.79638672 -0.7097168 C144.23377131 -0.82652829 152.66909679 -0.88320602 161.10731387 -0.86853737 C165.53893993 -0.86289098 169.96584697 -0.88603615 174.39652252 -0.98260689 C201.0143323 -1.53523505 201.0143323 -1.53523505 207.60983086 2.66008186 C211.61801912 6.5135809 214.03187831 10.82660323 216.10662079 15.941432 C217.43811857 19.00953421 219.28528563 21.45473357 221.28515625 24.12890625 C222.54498552 25.93960712 223.80410728 27.75080047 225.0625 29.5625 C225.7416748 30.53936768 226.42084961 31.51623535 227.12060547 32.52270508 C231.40704187 38.69263715 235.67111946 44.87741076 239.91821289 51.07446289 C244.1726859 57.27238616 248.49182449 63.42458058 252.80908203 69.57885742 C256.84524896 75.33715905 260.84263654 81.12040705 264.81640625 86.921875 C268.50967116 92.3056431 272.25056705 97.65523597 276 103 C280.64153138 109.61643782 285.2491718 116.25398376 289.81640625 122.921875 C293.50967116 128.3056431 297.25056705 133.65523597 301 139 C305.64153138 145.61643782 310.2491718 152.25398376 314.81640625 158.921875 C318.50967144 164.3056435 322.25060234 169.65521087 326 175 C330.1519598 180.91931031 334.28763498 186.84838598 338.375 192.8125 C344.84108418 202.24626771 351.38294685 211.62714648 357.91943359 221.01220703 C361.94455936 226.79248033 365.96584115 232.57542821 369.98779297 238.35791016 C373.3824692 243.23822514 376.77817184 248.11782025 380.17578125 252.99609375 C386.63206069 262.26804733 393.08669666 271.5404775 399.46411133 280.86694336 C402.25901965 284.94849575 405.11454004 288.98188169 408 293 C410.89344858 290.24418359 413.23825195 287.42867511 415.50390625 284.140625 C416.15633301 283.19807861 416.80875977 282.25553223 417.48095703 281.28442383 C418.16786621 280.28306396 418.85477539 279.2817041 419.5625 278.25 C420.27776855 277.21447998 420.99303711 276.17895996 421.72998047 275.11206055 C423.82442295 272.0777317 425.91326554 269.03963332 428 266 C428.52609863 265.23445801 429.05219727 264.46891602 429.59423828 263.68017578 C431.36936063 261.0971176 433.14422642 258.51388948 434.91625977 255.92871094 C439.17093672 249.72942385 443.49111379 243.57643253 447.80908203 237.42114258 C451.3994894 232.29879532 454.96507902 227.16077484 458.5 222 C463.22158851 215.10676098 468.01025088 208.26184539 472.80859375 201.421875 C476.39913557 196.29926391 479.96491324 191.16101687 483.5 186 C487.62835063 179.97285309 491.80455878 173.98062694 496 168 C500.1519598 162.08068969 504.28763498 156.15161402 508.375 150.1875 C514.84108418 140.75373229 521.38294685 131.37285352 527.91943359 121.98779297 C531.28143896 117.1597923 534.64064566 112.32984548 538 107.5 C542.05712678 101.66694595 546.11497287 95.83439808 550.17578125 90.00390625 C556.4491859 80.99463698 562.71304499 71.97982163 568.91918945 62.92407227 C573.17339441 56.72667677 577.49216134 50.57493924 581.80908203 44.42114258 C584.92595515 39.97437517 588.03859578 35.52548481 591.09544563 31.03715134 C591.97634147 29.759509 592.87050301 28.49080536 593.78356743 27.23595047 C596.40444397 23.58596969 598.50052094 20.0276679 600.33206177 15.92010498 C603.27136435 9.93127625 606.44180541 4.85382677 612 1 C622.60644582 -2.4750208 634.40190474 -1.52577881 645.42055273 -1.22980785 C649.8819281 -1.13168827 654.34296572 -1.14915799 658.8052063 -1.15338135 C667.28369019 -1.14424419 675.75764532 -1.033723 684.23472035 -0.88576341 C693.72642975 -0.7247229 703.21761717 -0.67329828 712.71049094 -0.63322973 C728.45368139 -0.56511923 744.19398065 -0.41065323 759.93573165 -0.19227743 C778.95692058 0.06662752 797.97745268 0.04802064 817 0 C815.69513693 3.3721519 814.37694241 6.11911276 812.19921875 9.01171875 C811.64105469 9.76001953 811.08289063 10.50832031 810.5078125 11.27929688 C809.90710938 12.07400391 809.30640625 12.86871094 808.6875 13.6875 C807.40936392 15.39914821 806.13203843 17.11140197 804.85546875 18.82421875 C803.88552979 20.12238525 803.88552979 20.12238525 802.89599609 21.44677734 C800.0574287 25.26930346 797.27731 29.13285949 794.5 33 C788.32018211 41.58443824 782.05213003 50.10203049 775.76611328 58.60888672 C772.84043906 62.56991151 769.92042722 66.53510594 767 70.5 C763.49111076 75.26381471 759.98102197 80.02671798 756.46484375 84.78515625 C750.77035401 92.49539457 745.10117057 100.22163589 739.5 108 C733.31898737 116.58359269 727.05214333 125.10201249 720.76611328 133.60888672 C717.84043906 137.56991151 714.92042722 141.53510594 712 145.5 C708.49111076 150.26381471 704.98102197 155.02671798 701.46484375 159.78515625 C695.77035401 167.49539457 690.10117057 175.22163589 684.5 183 C678.31898737 191.58359269 672.05214333 200.10201249 665.76611328 208.60888672 C662.84043906 212.56991151 659.92042722 216.53510594 657 220.5 C653.49111076 225.26381471 649.98102197 230.02671798 646.46484375 234.78515625 C640.23121106 243.22538458 634.04067299 251.69366464 627.90966797 260.20874023 C623.82702607 265.87202071 619.70478458 271.50521263 615.5625 277.125 C614.9953125 277.89457031 614.428125 278.66414063 613.84375 279.45703125 C613.29847656 280.19566406 612.75320313 280.93429687 612.19140625 281.6953125 C611.40660889 282.77087402 611.40660889 282.77087402 610.60595703 283.86816406 C609.50616148 285.32809334 608.36362749 286.75651717 607.18701172 288.15527344 C605.62056063 290.0534906 604.2022474 291.85268623 603 294 C603.10922279 296.69628761 603.10922279 296.69628761 605 299 C605.35900391 299.51981445 605.71800781 300.03962891 606.08789062 300.57519531 C607.42973721 302.46328968 608.83217024 304.29332339 610.25 306.125 C611.34065099 307.55667707 612.43046019 308.98899572 613.51953125 310.421875 C614.09010254 311.17017578 614.66067383 311.91847656 615.24853516 312.68945312 C618.18099473 316.557978 621.06029561 320.46529255 623.9375 324.375 C624.52289551 325.16962646 625.10829102 325.96425293 625.71142578 326.78295898 C630.26357957 332.97321263 634.75912883 339.20316638 639.24584961 345.44091797 C642.7755863 350.33650229 646.36449949 355.18254354 650 360 C654.75432309 366.30002511 659.3976986 372.67297707 664.00610352 379.08032227 C669.68556315 386.96991123 675.45674297 394.79068749 681.23388672 402.60888672 C684.15956103 406.56991162 687.07950306 410.53515717 690 414.5 C691.1666389 416.08335379 692.33330558 417.66668712 693.5 419.25 C700.5 428.75 707.5 438.25 714.5 447.75 C715.07758057 448.53383057 715.65516113 449.31766113 716.25024414 450.12524414 C717.41620806 451.70768185 718.58206104 453.29020131 719.74780273 454.87280273 C722.67431443 458.84551887 725.60277534 462.81676994 728.53515625 466.78515625 C734.27423482 474.55599874 739.98429619 482.34488696 745.625 490.1875 C749.68967678 495.83863096 753.8068222 501.44355697 758 507 C762.75432309 513.30002511 767.3976986 519.67297707 772.00610352 526.08032227 C777.6824908 533.9656433 783.45085748 541.78190117 789.22509766 549.59570312 C791.01096782 552.0148571 792.79318282 554.43666019 794.57421875 556.859375 C795.16259521 557.65939941 795.75097168 558.45942383 796.35717773 559.28369141 C797.52500497 560.87165259 798.69249192 562.45986409 799.85961914 564.04833984 C802.72891111 567.94607672 805.61782242 571.82660783 808.546875 575.6796875 C809.10745605 576.41872314 809.66803711 577.15775879 810.24560547 577.91918945 C811.30809584 579.31679253 812.37464404 580.71132282 813.44580078 582.10229492 C817 586.77916201 817 586.77916201 817 589 C789.870855 589.21020998 762.74183198 589.36893418 735.61203671 589.46630955 C723.01525085 589.51272384 710.4189709 589.57600619 697.82250977 589.67895508 C686.8438388 589.76863928 675.86553419 589.82671906 664.88650709 589.84679645 C659.07256284 589.8585336 653.25966669 589.8861294 647.44605827 589.95157051 C641.97353377 590.01267296 636.50248867 590.03150195 631.02965546 590.01796913 C629.02165498 590.02044462 627.01360491 590.03834214 625.00589943 590.07284927 C609.83687551 590.32077009 609.83687551 590.32077009 605.31558418 587.06982231 C603.49466586 584.7764867 602.24768624 582.63913827 601 580 C600.09260538 578.63900923 599.16831187 577.28894459 598.21875 575.95703125 C597.30935908 574.57758634 596.40322628 573.1959892 595.5 571.8125 C594.45547572 570.2297762 593.40985181 568.6477777 592.36328125 567.06640625 C591.544646 565.82914795 591.544646 565.82914795 590.70947266 564.56689453 C587.73731482 560.10398858 584.71251168 555.67718155 581.6875 551.25 C581.05779297 550.32807861 580.42808594 549.40615723 579.77929688 548.45629883 C578.49423417 546.57550845 577.20891413 544.69489386 575.92333984 542.81445312 C572.77832098 538.21229808 569.63942738 533.60597028 566.5 529 C565.25003031 527.166646 564.00003029 525.33331268 562.75 523.5 C540.25 490.5 517.75 457.5 495.25 424.5 C494.63141113 423.5927417 494.01282227 422.6854834 493.37548828 421.75073242 C492.12384048 419.91497145 490.87221292 418.07919668 489.62060547 416.2434082 C486.52098153 411.69710508 483.42102131 407.15103204 480.3203125 402.60546875 C472.98486666 391.85095917 465.65938587 381.08973429 458.34082031 370.32373047 C451.85326445 360.78138329 445.35395974 351.24708141 438.8515625 341.71484375 C436.96296851 338.94570277 435.07512538 336.17605132 433.1875 333.40625 C425.13790535 321.59531611 417.07592075 309.79294945 409 298 C405.63704849 301.1124382 403.15834643 304.54928977 400.6875 308.375 C399.80067925 309.72604891 398.91257788 311.07625779 398.0234375 312.42578125 C397.54100586 313.15877441 397.05857422 313.89176758 396.56152344 314.64697266 C393.68608988 318.97990397 390.74678056 323.26929994 387.8125 327.5625 C387.17530029 328.49562012 386.53810059 329.42874023 385.8815918 330.39013672 C384.57315884 332.30599224 383.26448201 334.22168122 381.95556641 336.13720703 C378.80051078 340.75595638 375.65044701 345.37810648 372.5 350 C371.25002527 351.83335056 370.00002524 353.66668387 368.75 355.5 C368.13125 356.4075 367.5125 357.315 366.875 358.25 C271.25 498.5 271.25 498.5 269.37548828 501.24926758 C268.12384048 503.08502855 266.87221292 504.92080332 265.62060547 506.7565918 C262.52098153 511.30289492 259.42102131 515.84896796 256.3203125 520.39453125 C250.4267168 529.0351419 244.53677778 537.67820349 238.65649414 546.32788086 C236.51758526 549.47413276 234.37793726 552.61988117 232.23828125 555.765625 C229.39900569 559.94045286 226.56360784 564.11788078 223.73046875 568.296875 C222.38285892 570.28128152 221.03520459 572.26565783 219.6875 574.25 C219.07132813 575.16072266 218.45515625 576.07144531 217.8203125 577.00976562 C216.95599609 578.28110352 216.95599609 578.28110352 216.07421875 579.578125 C215.57494873 580.31450195 215.07567871 581.05087891 214.5612793 581.80957031 C214.04605713 582.53241211 213.53083496 583.25525391 213 584 C212.48136761 584.85777637 211.96273521 585.71555273 211.42838669 586.59932232 C208.60045043 589.39499052 206.9177824 589.59259613 203.01349378 589.64540654 C201.81115853 589.62356023 201.81115853 589.62356023 200.58453369 589.60127258 C199.72765355 589.60554471 198.87077341 589.60981683 197.9879272 589.61421841 C195.11153985 589.62246604 192.23660494 589.59493449 189.36035156 589.56762695 C187.30067479 589.56621687 185.2409955 589.56700769 183.18132019 589.56983948 C177.58440882 589.57127656 171.98803107 589.54183911 166.39124393 589.50696969 C160.54428358 589.47575505 154.69731158 589.47277931 148.85028076 589.46684265 C137.77572276 589.45128985 126.70141096 589.41024177 115.62696147 589.3600952 C103.02013003 589.30424656 90.41328694 589.27672648 77.80636263 589.25161803 C51.87077181 589.19932733 25.93539969 589.11135697 0 589 C1.3422758 586.2618043 2.75256428 583.80815786 4.546875 581.33984375 C5.05468506 580.63867432 5.56249512 579.93750488 6.08569336 579.21508789 C6.63491455 578.46348389 7.18413574 577.71187988 7.75 576.9375 C8.32564697 576.14529053 8.90129395 575.35308105 9.49438477 574.53686523 C15.37115461 566.46156871 21.29854317 558.42340404 27.23388672 550.39111328 C30.15956094 546.43008849 33.07957278 542.46489406 36 538.5 C39.50888924 533.73618529 43.01897803 528.97328202 46.53515625 524.21484375 C52.27423482 516.44400126 57.98429619 508.65511304 63.625 500.8125 C68.16995877 494.49363171 72.79681273 488.24459167 77.48535156 482.03173828 C81.73730414 476.38335203 85.87814346 470.65903126 90.00610352 464.91967773 C95.68556315 457.03008877 101.45674297 449.20931251 107.23388672 441.39111328 C110.15956103 437.43008838 113.07950306 433.46484283 116 429.5 C117.1666389 427.91664621 118.33330558 426.33331288 119.5 424.75 C120.36625 423.574375 120.36625 423.574375 121.25 422.375 C140.5 396.25 140.5 396.25 142.25024414 393.87475586 C143.41620806 392.29231815 144.58206104 390.70979869 145.74780273 389.12719727 C148.67431443 385.15448113 151.60277534 381.18323006 154.53515625 377.21484375 C160.27423482 369.44400126 165.98429619 361.65511304 171.625 353.8125 C176.16781845 347.49660739 180.79234537 341.25039394 185.47875977 335.04052734 C189.79293096 329.30956164 193.99754787 323.50321153 198.1862793 317.68017578 C203.41032246 310.41862117 208.69760283 303.20445948 214 296 C212.34234094 292.34080579 210.09575526 289.17680987 207.75 285.9375 C207.31598877 285.33389648 206.88197754 284.73029297 206.43481445 284.10839844 C202.13145922 278.14240029 197.75799553 272.22783169 193.38574219 266.31225586 C189.38851609 260.89983934 185.43037409 255.46111979 181.5 250 C175.31923582 241.41623134 169.0521406 232.89798382 162.76611328 224.39111328 C159.25687377 219.64000853 155.75538724 214.88318709 152.25244141 210.12744141 C149.32579251 206.15468511 146.39729226 202.18332154 143.46484375 198.21484375 C137.22528928 189.76659743 131.0293578 181.28993416 124.89208984 172.76708984 C119.24281917 164.93122514 113.50687108 157.16007146 107.76611328 149.39111328 C104.25687377 144.64000853 100.75538724 139.88318709 97.25244141 135.12744141 C94.32579251 131.15468511 91.39729226 127.18332154 88.46484375 123.21484375 C82.22528928 114.76659743 76.0293578 106.28993416 69.89208984 97.76708984 C64.24281917 89.93122514 58.50687108 82.16007146 52.76611328 74.39111328 C49.25687377 69.64000853 45.75538724 64.88318709 42.25244141 60.12744141 C39.32579251 56.15468511 36.39729226 52.18332154 33.46484375 48.21484375 C26.08768035 38.22671912 18.76899568 28.19913114 11.52392578 18.11474609 C10.0111135 16.01542217 8.48907615 13.92307362 6.96484375 11.83203125 C6.03897185 10.55475321 5.11318577 9.27741295 4.1875 8 C3.76049805 7.41822998 3.33349609 6.83645996 2.89355469 6.23706055 C-0 2.22653544 -0 2.22653544 0 0 Z " fill="#FFFFFF" transform="translate(0,0)"/>
<path d="M0 0 C55.11 0 110.22 0 167 0 C165.58377146 3.54057135 164.5968554 5.84598079 162.5234375 8.8359375 C162.02610107 9.55813477 161.52876465 10.28033203 161.01635742 11.02441406 C160.47470947 11.80010742 159.93306152 12.57580078 159.375 13.375 C158.80305908 14.20225586 158.23111816 15.02951172 157.6418457 15.88183594 C155.76632031 18.59146 153.88351726 21.29592643 152 24 C150.71461284 25.85140221 149.42945864 27.70296617 148.14453125 29.5546875 C144.79132652 34.38311906 141.4318542 39.20715511 138.0703125 44.02978516 C134.60752781 48.99773781 131.14691 53.9671969 127.6875 58.9375 C127.01630127 59.90179932 126.34510254 60.86609863 125.65356445 61.85961914 C121.44114922 67.91590851 117.25188849 73.98741677 113.08300781 80.07373047 C108.82034171 86.2860004 104.48606879 92.44771804 100.14477539 98.60522461 C97.36235332 102.5658484 94.62180399 106.54143605 91.9921875 110.60546875 C91.53593994 111.30857178 91.07969238 112.0116748 90.60961914 112.73608398 C89.76597408 114.04593305 88.93129314 115.36161425 88.10717773 116.68383789 C86.98828125 118.421875 86.98828125 118.421875 85 121 C84.01 121 83.02 121 82 121 C80.44921875 119.078125 80.44921875 119.078125 78.6875 116.25 C74.98742768 110.48224021 71.13488142 104.85149682 67.1875 99.25 C62.92750497 93.18737347 58.68599575 87.11397254 54.5 81 C50.37178589 74.97276143 46.19547948 68.98059711 42 63 C37.35905869 56.38440332 32.75081401 49.74849537 28.18579102 43.08032227 C25.07218369 38.53971593 21.92032019 34.02721747 18.75439453 29.52294922 C13.82554868 22.50917905 8.91427278 15.48507346 4.125 8.375 C3.70210693 7.75359131 3.27921387 7.13218262 2.84350586 6.49194336 C0 2.23605611 0 2.23605611 0 0 Z " fill="#008FB1" transform="translate(325,1)"/>
<path d="M0 0 C3.2384372 3.10051398 5.90668329 6.09689166 8.3125 9.875 C12.26491406 15.93339078 16.36086123 21.88018062 20.5 27.8125 C21.5350769 29.2972583 21.5350769 29.2972583 22.59106445 30.81201172 C24.0174033 32.85749456 25.44408348 34.90273942 26.87109375 36.94775391 C30.25213555 41.79520627 33.62586822 46.64773655 37 51.5 C41.05705358 57.33310493 45.1149729 63.16560197 49.17578125 68.99609375 C55.48997726 78.06403846 61.8007142 87.13340352 68.03564453 96.25610352 C70.43591939 99.75860142 72.87085278 103.23302589 75.33984375 106.6875 C75.89768555 107.46947754 76.45552734 108.25145508 77.03027344 109.05712891 C78.11396827 110.57283291 79.20170098 112.08566013 80.29394531 113.59521484 C80.77831055 114.27277832 81.26267578 114.9503418 81.76171875 115.6484375 C82.19444092 116.24833496 82.62716309 116.84823242 83.07299805 117.46630859 C84 119 84 119 84 121 C28.89 121 -26.22 121 -83 121 C-81.33870658 116.84676646 -79.97907303 114.36198962 -77.36328125 110.88671875 C-73.19240142 105.26943235 -69.17281462 99.56245886 -65.1875 93.8125 C-64.49027832 92.80856201 -63.79305664 91.80462402 -63.07470703 90.77026367 C-58.72127596 84.49708695 -54.38947961 78.20941612 -50.07177734 71.91162109 C-45.93605639 65.8880868 -41.74337882 59.90494351 -37.54907227 53.92211914 C-27.81590113 40.03626921 -18.10812093 26.13157191 -8.53637695 12.13378906 C-5.74132351 8.05197981 -2.88563132 4.01835694 0 0 Z " fill="#008EB0" transform="translate(408,468)"/>
</svg>
