<svg width="1000" height="179" viewBox="0 0 1000 179" fill="none" xmlns="http://www.w3.org/2000/svg">
<g clip-path="url(#clip0_13_412)">
<path d="M526.588 0L484.427 13.222V38.5932H461.925V80.0308H484.427V144.26C484.427 163.449 499.976 178.997 519.164 178.997H555.515V139.343H536.689C530.903 139.343 526.227 134.654 526.227 128.881V79.3197H555.527V38.9427H526.588V0Z" fill="white"/>
<path d="M971.06 0L928.9 13.222V38.5932H906.397V80.0308H928.9V144.26C928.9 163.449 944.448 178.997 963.636 178.997H999.987V139.343H981.161C975.375 139.343 970.699 134.654 970.699 128.881V79.3197H999.999V38.9427H971.06V0Z" fill="white"/>
<path d="M212.781 26.5403C170.692 26.5403 136.571 60.6618 136.571 102.75C136.571 144.839 170.692 178.96 212.781 178.96C254.869 178.96 288.991 144.839 288.991 102.75C288.991 60.6618 254.869 26.5403 212.781 26.5403ZM212.781 138.017C193.303 138.017 177.514 122.228 177.514 102.75C177.514 83.273 193.303 67.4837 212.781 67.4837C232.258 67.4837 248.047 83.273 248.047 102.75C248.047 122.228 232.258 138.017 212.781 138.017Z" fill="white"/>
<path d="M718.024 100.28C718.024 84.2856 713.058 69.4003 704.766 57.1546C690.893 37.1107 667.92 24.0575 641.802 24.0575C599.689 24.0575 565.58 58.167 565.58 100.28C565.58 142.392 599.689 176.502 641.802 176.502C667.92 176.502 690.893 163.34 704.766 143.405L670.849 120.227C664.473 129.436 653.843 135.51 641.802 135.51C627.628 135.51 615.382 127.109 609.814 114.96H716.602C717.518 110.199 718.024 105.342 718.024 100.28ZM610.922 83.3695C616.901 72.3412 628.435 64.9407 641.802 64.9407C653.843 64.9407 664.473 71.0154 670.958 80.3322C671.56 81.2482 672.175 82.2607 672.681 83.3695H610.935H610.922Z" fill="white"/>
<path d="M105.378 122.698L139.09 145.779C125.422 165.823 102.341 178.985 76.2222 178.985C34.1096 178.973 0 144.767 0 102.75C0 60.7343 34.1096 26.5283 76.2222 26.5283C102.341 26.5283 125.422 39.69 139.09 59.7339L105.378 82.815C99.0021 73.4982 88.3715 67.4236 76.2222 67.4236C56.781 67.4236 40.9917 83.2128 40.9917 102.75C40.9917 122.288 56.781 137.981 76.2222 137.981C88.3715 137.981 99.0021 131.906 105.378 122.698Z" fill="white"/>
<path d="M456.296 102.775V178.997H415.305V102.775C415.305 83.3333 399.515 67.5441 380.074 67.5441C360.633 67.5441 344.844 83.3333 344.844 102.775V178.997H303.852V39.3043L344.844 26.5524V35.2545C355.366 29.6861 367.31 26.5524 380.074 26.5524C422.187 26.5524 456.296 60.7704 456.296 102.775Z" fill="white"/>
<path d="M906.397 28.7942L853.955 100.304L906.397 171.681H855.739L807.154 100.4L856.775 28.9268L906.397 28.7942Z" fill="white"/>
<path d="M707.899 28.7942L760.341 100.304L707.899 171.681H758.557L807.154 100.4L757.52 28.9268L707.899 28.7942Z" fill="white"/>
<path d="M827.44 29.0232L807.155 58.2513L786.858 29.0232H827.44Z" fill="#008FB1"/>
<path d="M786.858 171.681L807.155 142.465L827.44 171.681H786.858Z" fill="#008FB1"/>
</g>
<defs>
<clipPath id="clip0_13_412">
<rect width="1000" height="178.997" fill="white"/>
</clipPath>
</defs>
</svg>
