<svg width="1000" height="178" viewBox="0 0 1000 178" fill="none" xmlns="http://www.w3.org/2000/svg">
<path d="M526.589 0L484.428 13.1399V38.3535H461.926V79.5339H484.428V143.365C484.428 162.434 499.977 177.885 519.165 177.885H555.516V138.478H536.69C530.904 138.478 526.228 133.818 526.228 128.081V78.8271H555.528V38.7009H526.589V0Z" fill="#12106D"/>
<path d="M971.061 0L928.9 13.1399V38.3535H906.397V79.5339H928.9V143.365C928.9 162.434 944.448 177.885 963.637 177.885H999.988V138.478H981.161C975.376 138.478 970.699 133.818 970.699 128.081V78.8271H1000V38.7009H971.061V0Z" fill="#12106D"/>
<path d="M212.781 26.3767C170.693 26.3767 136.571 60.2863 136.571 102.113C136.571 143.94 170.693 177.85 212.781 177.85C254.87 177.85 288.991 143.94 288.991 102.113C288.991 60.2863 254.87 26.3767 212.781 26.3767ZM212.781 137.161C193.304 137.161 177.515 121.47 177.515 102.113C177.515 82.757 193.304 67.0658 212.781 67.0658C232.259 67.0658 248.048 82.757 248.048 102.113C248.048 121.47 232.259 137.161 212.781 137.161Z" fill="#12106D"/>
<path d="M718.024 99.6555C718.024 83.7608 713.059 68.968 704.766 56.7984C690.893 36.8791 667.921 23.907 641.802 23.907C599.69 23.907 565.58 57.8046 565.58 99.6555C565.58 141.506 599.69 175.404 641.802 175.404C667.921 175.404 690.893 162.324 704.766 142.513L670.85 119.479C664.474 128.63 653.843 134.667 641.802 134.667C627.628 134.667 615.382 126.318 609.814 114.245H716.602C717.518 109.513 718.024 104.686 718.024 99.6555ZM610.923 82.8505C616.901 71.8906 628.436 64.5362 641.802 64.5362C653.843 64.5362 664.474 70.5731 670.958 79.832C671.561 80.7423 672.175 81.7485 672.682 82.8505H610.935H610.923Z" fill="#12106D"/>
<path d="M105.378 121.935L139.09 144.873C125.422 164.792 102.341 177.872 76.2221 177.872C34.1095 177.86 0 143.866 0 102.111C0 60.356 34.1095 26.3625 76.2221 26.3625C102.341 26.3625 125.422 39.4425 139.09 59.3619L105.378 82.2997C99.002 73.0407 88.3714 67.0038 76.2221 67.0038C56.7809 67.0038 40.9917 82.6949 40.9917 102.111C40.9917 121.528 56.7809 137.123 76.2221 137.123C88.3714 137.123 99.002 131.086 105.378 121.935Z" fill="#12106D"/>
<path d="M456.296 102.137V177.885H415.304V102.137C415.304 82.8164 399.515 67.1253 380.074 67.1253C360.632 67.1253 344.843 82.8164 344.843 102.137V177.885H303.852V39.061L344.843 26.3883V35.0364C355.365 29.5026 367.31 26.3883 380.074 26.3883C422.186 26.3883 456.296 60.3937 456.296 102.137Z" fill="#12106D"/>
<path d="M906.396 28.6161L853.955 99.6814L906.396 170.615H855.738L807.153 99.7773L856.775 28.7478L906.396 28.6161Z" fill="#12106D"/>
<path d="M707.898 28.6161L760.34 99.6814L707.898 170.615H758.557L807.154 99.7773L757.52 28.7478L707.898 28.6161Z" fill="#12106D"/>
<path d="M827.438 28.844L807.153 57.8906L786.856 28.844H827.438Z" fill="#008FB1"/>
<path d="M786.856 170.615L807.153 141.58L827.438 170.615H786.856Z" fill="#008FB1"/>
</svg>
